<svg xmlns="http://www.w3.org/2000/svg" width="70.483" height="70.483" viewBox="0 0 70.483 70.483"><defs><style>.a{fill:#fff;}</style></defs><g transform="translate(-8 -8)"><path class="a" d="M77.346,72.8H76.209V35.284a1.137,1.137,0,0,0-1.137-1.137H62.568V9.137A1.137,1.137,0,0,0,61.431,8H25.052a1.137,1.137,0,0,0-1.137,1.137V22.779H11.41a1.137,1.137,0,0,0-1.137,1.137V72.8H9.137A1.137,1.137,0,0,0,8,73.936v3.41a1.137,1.137,0,0,0,1.137,1.137H77.346a1.137,1.137,0,0,0,1.137-1.137v-3.41A1.137,1.137,0,0,0,77.346,72.8ZM62.568,36.421H73.936V72.8H62.568ZM26.189,10.274h34.1V72.8H52.336V55.747A1.137,1.137,0,0,0,51.2,54.61H35.284a1.137,1.137,0,0,0-1.137,1.137V72.8H26.189Zm23.873,46.61V72.8H44.378V56.883Zm-7.958,0V72.8H36.421V56.883ZM12.547,25.052H23.916V72.8H12.547ZM76.209,76.209H10.274V75.073H76.209Z" transform="translate(0 0)"/><path class="a" d="M55.958,136H49.137A1.137,1.137,0,0,0,48,137.137v6.821a1.137,1.137,0,0,0,1.137,1.137h6.821a1.137,1.137,0,0,0,1.137-1.137v-6.821A1.137,1.137,0,0,0,55.958,136Zm-1.137,6.821H50.274v-4.547h4.547Z" transform="translate(-34.316 -109.811)"/><path class="a" d="M55.958,216H49.137A1.137,1.137,0,0,0,48,217.137v6.821a1.137,1.137,0,0,0,1.137,1.137h6.821a1.137,1.137,0,0,0,1.137-1.137v-6.821A1.137,1.137,0,0,0,55.958,216Zm-1.137,6.821H50.274v-4.547h4.547Z" transform="translate(-34.316 -178.443)"/><path class="a" d="M55.958,296H49.137A1.137,1.137,0,0,0,48,297.137v6.821a1.137,1.137,0,0,0,1.137,1.137h6.821a1.137,1.137,0,0,0,1.137-1.137v-6.821A1.137,1.137,0,0,0,55.958,296Zm-1.137,6.821H50.274v-4.547h4.547Z" transform="translate(-34.316 -247.074)"/><path class="a" d="M401.137,225.095h6.821a1.137,1.137,0,0,0,1.137-1.137v-6.821A1.137,1.137,0,0,0,407.958,216h-6.821A1.137,1.137,0,0,0,400,217.137v6.821A1.137,1.137,0,0,0,401.137,225.095Zm1.137-6.821h4.547v4.547h-4.547Z" transform="translate(-336.296 -178.443)"/><path class="a" d="M401.137,305.095h6.821a1.137,1.137,0,0,0,1.137-1.137v-6.821A1.137,1.137,0,0,0,407.958,296h-6.821A1.137,1.137,0,0,0,400,297.137v6.821A1.137,1.137,0,0,0,401.137,305.095Zm1.137-6.821h4.547v4.547h-4.547Z" transform="translate(-336.296 -247.074)"/><path class="a" d="M153.137,243.368h27.284a1.137,1.137,0,0,0,1.137-1.137v-9.095A1.137,1.137,0,0,0,180.421,232H153.137A1.137,1.137,0,0,0,152,233.137v9.095A1.137,1.137,0,0,0,153.137,243.368Zm12.505-2.274h-4.547v-6.821h4.547Zm2.274-6.821h4.547v6.821h-4.547Zm11.368,6.821h-4.547v-6.821h4.547Zm-25.01-6.821h4.547v6.821h-4.547Z" transform="translate(-123.537 -192.169)"/><path class="a" d="M153.137,147.368h27.284a1.137,1.137,0,0,0,1.137-1.137v-9.095A1.137,1.137,0,0,0,180.421,136H153.137A1.137,1.137,0,0,0,152,137.137v9.095A1.137,1.137,0,0,0,153.137,147.368Zm12.505-2.274h-4.547v-6.821h4.547Zm2.274-6.821h4.547v6.821h-4.547Zm11.368,6.821h-4.547v-6.821h4.547Zm-25.01-6.821h4.547v6.821h-4.547Z" transform="translate(-123.537 -109.811)"/><path class="a" d="M153.137,51.368h27.284a1.137,1.137,0,0,0,1.137-1.137V41.137A1.137,1.137,0,0,0,180.421,40H153.137A1.137,1.137,0,0,0,152,41.137v9.095A1.137,1.137,0,0,0,153.137,51.368Zm12.505-2.274h-4.547V42.274h4.547Zm2.274-6.821h4.547v6.821h-4.547Zm11.368,6.821h-4.547V42.274h4.547Zm-25.01-6.821h4.547v6.821h-4.547Z" transform="translate(-123.537 -27.453)"/></g></svg>