<svg xmlns="http://www.w3.org/2000/svg" width="124.211" height="310" viewBox="0 0 124.211 310"><defs><style>.a{fill:#eb9481;}.b{fill:#ebebeb;}.c{fill:#978462;}.d{fill:#263238;}.e{fill:#455a64;}.f{fill:#37474f;}.g{fill:none;}.h{fill:#fff;}.i{fill:#c7c7c7;}.j,.k,.l{fill:#ffc727;}.k{opacity:0.4;}.l{opacity:0.6;}.m{fill:#ff9bbc;}.n{fill:#050400;opacity:0.1;}</style></defs><path class="a" d="M325.518,344.79l27.945,22.61c5.368,4.288,9.99,8.14,12.2,10.359h0c.837.837,1.315,1.432,1.34,1.725v.059c-.151,2.47-33.17,46.326-34.845,47.49s-5.025-3.517-5.133-6.247,5.066-25.173,5.066-25.173l-27.7-22.828Z" transform="translate(-242.828 -129.168)"/><path class="b" d="M325.895,366.23l5.728,4.631c5.368,4.288,9.99,8.14,12.2,10.359h0a9.516,9.516,0,0,1,1.34,1.725V383c-.151,2.5-33.17,46.351-34.845,47.515s-5.025-3.517-5.133-6.247,5.066-25.173,5.066-25.173l-5.862-4.623Z" transform="translate(-220.988 -132.654)"/><path class="c" d="M309.434,431.385c1.675-1.147,34.686-45,34.878-47.465.092-.938-6.021-6.122-13.583-12.176l-.234-.184-21.614,28,.494.352s-5.133,22.443-5.025,25.173S307.759,432.516,309.434,431.385Z" transform="translate(-220.102 -133.52)"/><path class="d" d="M307.3,432.23c5.376-7.537,27.8-37.391,33.7-44.425.05-.059.092,0,.05,0-5.175,7.537-27.844,37.257-33.631,44.484C307.291,432.473,307.182,432.389,307.3,432.23Z" transform="translate(-219.283 -136.157)"/><path class="d" d="M337.788,406.982c1.675-3.35,4.773-6.54,8.517-7.2a.138.138,0,0,1,.084.251,51.374,51.374,0,0,0-8.223,7.21.234.234,0,0,1-.377-.26Z" transform="translate(-250.224 -138.109)"/><path class="d" d="M338.174,410.6c1.675-3.35,4.765-6.54,8.517-7.2a.138.138,0,0,1,.075.251,51.01,51.01,0,0,0-8.215,7.219.234.234,0,0,1-.377-.268Z" transform="translate(-250.92 -138.697)"/><path class="d" d="M338.538,414.272c1.675-3.35,4.773-6.54,8.517-7.2a.138.138,0,0,1,.084.251,51.017,51.017,0,0,0-8.223,7.21.234.234,0,0,1-.377-.26Z" transform="translate(-251.602 -139.294)"/><path class="e" d="M361.648,294.825c1.976,9.773,42.516,48.763,42.516,48.763L375.9,376.247s-57.556-57.455-54.558-79.044c2.613-18.775,30.733-94.293,30.733-94.293h32.467S359.73,285.22,361.648,294.825Z" transform="translate(-294.09 -106.101)"/><path class="d" d="M331.614,395.35c3.752-4.673,2.613-3.35,6.415-8.014,1.867-2.269,14.127-17.15,16.238-18.959.042-.042.117,0,.092.075-1.415,2.4-13.935,17.058-15.836,19.261-3.894,4.556-2.831,3.207-6.775,7.721a.092.092,0,0,1-.134-.084Z" transform="translate(-252.985 -133)"/><path class="d" d="M333.759,290.73c.461-2.445.988-4.874,1.507-7.3q1.583-7.436,3.35-14.839,3.509-14.672,7.621-29.192c2.772-9.706,5.694-19.395,9.052-28.908q.628-1.767,1.281-3.517a.075.075,0,0,1,.142.042c-2.923,9.53-5.921,19.035-8.659,28.623s-5.242,19.152-7.612,28.8c-1.2,4.84-2.3,9.7-3.392,14.563-.528,2.395-1.047,4.782-1.558,7.185a50.58,50.58,0,0,0-1.357,7.394,11.238,11.238,0,0,0,1.9,6.7c1.223,1.993,2.646,3.86,4.036,5.736,2.763,3.76,29.167,33.178,30.013,33.982.067.059,0,.151-.1.092-3.542-3.182-25.96-27.425-28.782-31.177-1.407-1.859-2.78-3.743-4.128-5.636a22.485,22.485,0,0,1-3.224-5.686A13.4,13.4,0,0,1,333.759,290.73Z" transform="translate(-270.195 -106.755)"/><path class="a" d="M428.1,392.87s-7.009,34.091-7,34.116c-.1,6.867-.3,12.888-.7,15.995a.109.109,0,0,1,0,.05,4.865,4.865,0,0,1-.536,2.11h-.042c-2.06,1.357-56.944,2.211-58.879,1.591s-.327-6.147,1.775-7.88S385.711,427.4,385.711,427.4l7.344-34.075Z" transform="translate(-350.561 -136.985)"/><path class="b" d="M367.876,452.247c1.918.62,56.819-.234,58.879-1.591h.042a4.74,4.74,0,0,0,.536-2.11.168.168,0,0,0,0-.059c.394-3.1.595-9.111.7-15.978l1.214-5.979H394l-1.373,6.381s-20.86,9.722-22.987,11.464S365.942,451.644,367.876,452.247Z" transform="translate(-357.497 -142.458)"/><path class="c" d="M369.325,453.348c1.926.611,56.81-.234,58.879-1.6.837-.5,1.139-8.508,1.273-18.189v-.31l-35.414.159V434s-20.868,9.722-22.987,11.464S367.4,452.737,369.325,453.348Z" transform="translate(-358.945 -143.55)"/><path class="d" d="M373.077,454.545c9.212-.368,46.586-.988,55.755-.653.075,0,.075.05,0,.059-9.153.569-46.5.888-55.755.745C372.884,454.7,372.884,454.553,373.077,454.545Z" transform="translate(-362.111 -146.89)"/><path class="d" d="M401.4,434.279c3.626-.737,8.089-.251,10.886,2.3.109.1,0,.251-.151.218a50.86,50.86,0,0,0-10.744-2.06.235.235,0,0,1,.008-.461Z" transform="translate(-369.233 -143.667)"/><path class="d" d="M404.512,436.219c3.626-.737,8.089-.251,10.886,2.3.109.1,0,.251-.151.218a50.865,50.865,0,0,0-10.744-2.06.234.234,0,0,1,.008-.461Z" transform="translate(-374.947 -143.982)"/><path class="d" d="M407.622,438.159c3.626-.737,8.089-.251,10.886,2.3.109.1,0,.251-.151.218a50.862,50.862,0,0,0-10.744-2.06.234.234,0,0,1,.008-.461Z" transform="translate(-380.662 -144.297)"/><path class="e" d="M346.2,202.868a131.12,131.12,0,0,1,2.789,16.179c.678,6.791,1.524,12.8,2.429,13.541s6.147,4.137,7.88,5.192c0,0-15.986,48.445-20.1,64.6-5.979,23.406-20.3,93.649-20.3,93.649h38.144s11.6-66.868,16.673-89.152c4.346-19.11,21-76.44,21-76.44a33.254,33.254,0,0,0-1.348-27.559S346.2,202.843,346.2,202.868Z" transform="translate(-285.059 -106.093)"/><path class="d" d="M368.565,424.645c6,0,4.279-.109,10.275-.067,2.931,0,22.217.142,24.947.645a.059.059,0,0,1,0,.117c-2.747.41-22.024-.05-24.955-.126-6-.151-4.279-.176-10.267-.394a.092.092,0,0,1,0-.176Z" transform="translate(-333.356 -142.139)"/><path class="d" d="M364.44,236.072a73.229,73.229,0,0,1,10.526,7.043.134.134,0,0,1-.142.218c-3.567-2.236-7.219-4.413-10.66-6.833a.254.254,0,0,1,.276-.427Z" transform="translate(-300.784 -111.486)"/><path class="d" d="M367.981,204.582c0-.126.268-.117.243,0a128.542,128.542,0,0,0-1.34,12.863c-.126,2-.234,13.122,3.308,12.863.586,0,.971-.561,1.189-1.407a14.038,14.038,0,0,0,.067-3.408c0-2.336,0-4.673.184-7a63.431,63.431,0,0,1,2.135-12.846.117.117,0,0,1,.226,0,119.342,119.342,0,0,0-1.725,17.929c0,2.9.754,7.378-2.269,7.353s-3.927-7.461-3.994-9.471A66.106,66.106,0,0,1,367.981,204.582Z" transform="translate(-301.411 -106.358)"/><path class="d" d="M370.9,235.615a17.666,17.666,0,0,1,.419,2.378,5.184,5.184,0,0,1,0,1.9.134.134,0,0,1-.243,0,6.557,6.557,0,0,1-.519-1.926c-.151-.737-.318-1.474-.444-2.219a.4.4,0,1,1,.787-.134Z" transform="translate(-302.259 -111.364)"/><path class="d" d="M350.739,233a38.1,38.1,0,0,1-9.664-1.826,22.878,22.878,0,0,1-9.379-5.795,18.3,18.3,0,0,1-3.592-5.024c0-.075-.151,0-.126.059a16.874,16.874,0,0,0,2.512,5.024,19.4,19.4,0,0,0,4.128,3.944,21.773,21.773,0,0,0,10.526,4.07,17.075,17.075,0,0,0,5.653-.092C351.007,233.317,350.889,233.016,350.739,233Z" transform="translate(-246.485 -108.932)"/><path class="d" d="M349.747,389.984c.1-.879.218-1.767.343-2.646.234-1.675.519-3.35.779-5.025.528-3.392,1.105-6.775,1.675-10.158,1.2-6.7,2.579-13.449,4.036-20.1.837-3.785,1.784-7.537,2.789-11.255.075-.26.444-.134.394.126-.611,3.417-1.206,6.833-1.9,10.233s-1.39,6.783-2.068,10.183c-1.332,6.7-2.571,13.441-3.9,20.157-.377,1.893-.712,3.794-1.089,5.686-.184.946-.368,1.893-.578,2.839s-.494,1.859-.645,2.805c0,.092-.151.05-.134-.042C349.622,391.818,349.638,390.9,349.747,389.984Z" transform="translate(-273.321 -128.497)"/><path class="d" d="M367.618,323.668c1.273-6.331,2.981-12.561,4.706-18.8,3.467-12.519,7.537-24.855,11.623-37.19l3.517-10.66c.586-1.775,3.467-11.355,3.819-12.268a.079.079,0,1,1,.151.05c-.837,3.258-1.96,8.022-2.906,11.247s-1.968,6.364-2.964,9.547c-1.943,6.247-3.927,12.478-5.862,18.741-3.743,12.385-7.453,24.754-10.493,37.332-.837,3.526-1.675,7.043-2.47,10.585s-1.44,7.085-2.177,10.627a.092.092,0,0,1-.176,0C365.063,336.413,366.345,330.04,367.618,323.668Z" transform="translate(-317.503 -112.895)"/><path class="d" d="M327.869,350.323c2.1-12.076,4.623-24.093,7.4-36.009s5.921-23.925,9.362-35.766,7.244-23.548,11.33-35.172a148.578,148.578,0,0,0,5.184-16.748c1.256-5.644,1.893-11.724.578-17.435a29.5,29.5,0,0,0-1.3-4.237c-.042-.1.1-.176.142-.084,4.581,10.694,1.608,22.384-1.884,32.927-1.918,5.778-3.961,11.506-5.862,17.293q-2.914,8.91-5.569,17.887-5.276,17.829-9.748,35.833t-7.83,36.277c-2.3,12.21-4.237,24.461-6.205,36.721-.251,1.6-.452,3.2-.662,4.8,0,.092-.159.092-.142,0C324.176,374.483,325.783,362.407,327.869,350.323Z" transform="translate(-254.038 -106.413)"/><path class="a" d="M422.31,141.65c-8.307,14.831-25.918,33.606-32.617,33.212-3.191-.184-8.935.167-12.854-3.794-8.55-8.642-13.633-21.321-16.748-27.551-1.424-2.83,16.062-14.579,18.113-11.883,4.807,6.306,10.049,18.381,10.987,18.381,3.45,0,17.485-10.451,27.568-17.4C428.021,124.818,425.626,135.738,422.31,141.65Z" transform="translate(-347.466 -94.232)"/><path class="a" d="M426.836,142.995c-1.792-1.96-9.212-11.724-10.669-14.873s-5.025-12.561-2.68-13.968,3.576,1.315,3.576,1.315-.837-4.187,1.591-5.385,4.271,3.073,4.271,3.073-.569-4.4,1.968-5.376,3.643,3.576,3.643,3.576-.7-3.994,1.717-3.927c2.923.084,3.4,7.6,5.267,10.979.427.77,9.731,14.948,9.731,14.948Z" transform="translate(-411.784 -90.578)"/><path class="d" d="M427.54,111.62c.36,5.527,1.474,7.88,4.681,12.285.059.092-.05.2-.126.117-3.534-4.036-5.359-6.783-4.824-12.4C427.3,111.344,427.524,111.352,427.54,111.62Z" transform="translate(-410.889 -91.226)"/><path class="d" d="M433.6,113.719c.837,5.7,2.06,8.265,5.075,13.139.042.067-.067.142-.117.075-3.35-4.522-5.117-7.311-5.242-13.131C433.319,113.544,433.562,113.46,433.6,113.719Z" transform="translate(-422.479 -91.575)"/><path class="d" d="M439.191,117.276c1.248,5.46,2.428,8.374,5.962,12.679a.1.1,0,0,1-.151.142,18.588,18.588,0,0,1-5.971-12.762C439,117.008,439.116,116.933,439.191,117.276Z" transform="translate(-433.753 -92.142)"/><path class="f" d="M417.929,109.6l14.236,23.28a1.675,1.675,0,0,0,1.943.687l12.151-4.773a1.089,1.089,0,0,0,.519-1.675L432.517,103.85a1.675,1.675,0,0,0-1.943-.687l-12.151,4.773a1.089,1.089,0,0,0-.494,1.666Z" transform="translate(-417.716 -89.87)"/><path class="d" d="M417.389,107.546l12.151-4.773a1.675,1.675,0,0,1,1.943.687l14.236,23.28a1.089,1.089,0,0,1-.511,1.675l-12.151,4.773a1.675,1.675,0,0,1-1.943-.687l-14.236-23.28a1.089,1.089,0,0,1,.511-1.675Zm14.027,23.875a1.532,1.532,0,0,0,1.775.678l10.886-4.271a1,1,0,0,0,.427-1.541l-13.248-21.664c-.762-1.248-1.3-1.114-1.9-.837l-2.177.837c-.134.05-.151.218-.05.385l.042.075c.243.385,0,.477-.268.586l-5.025,1.976c-.276.117-.511.2-.745-.184l-.042-.075a.385.385,0,0,0-.419-.209l-2.177.837c-.6.243-1,.6-.3,1.742Z" transform="translate(-415.778 -89.807)"/><line class="g" y1="0.017" x2="0.042" transform="translate(27.89 35.125)"/><path class="h" d="M418.494,109.952l13.24,21.647a1.533,1.533,0,0,0,1.775.678l10.886-4.271a1,1,0,0,0,.427-1.541L431.574,104.8c-.762-1.248-1.3-1.114-1.9-.837l-2.177.837c-.134.05-.151.218-.05.385l.042.075c.243.385,0,.477-.268.586l-5.025,1.976c-.276.117-.511.2-.745-.184l-.042-.075a.385.385,0,0,0-.419-.209l-2.177.837C418.192,108.453,417.8,108.813,418.494,109.952Z" transform="translate(-416.095 -89.984)"/><g transform="translate(12.071 14.974)"><path class="i" d="M437.71,105.365h.05a.268.268,0,0,1,.159-.159.427.427,0,0,1,.251,0h-.243l-.067.05a.175.175,0,0,0,0,.05h0Z" transform="translate(-437.71 -105.187)"/><path class="i" d="M438.093,105.338h0a.318.318,0,0,0-.176,0,.26.26,0,0,0-.168.142h.059a.167.167,0,0,1,.1-.1A.193.193,0,0,1,438.093,105.338Z" transform="translate(-437.666 -105.21)"/><path class="i" d="M437.77,105.475h.05a.109.109,0,0,1,.05-.059h.092a.142.142,0,0,0-.193.059Z" transform="translate(-437.552 -105.222)"/><path class="i" d="M437.812,105.519h.059a.05.05,0,0,0-.05,0S437.8,105.5,437.812,105.519Z" transform="translate(-437.494 -105.24)"/></g><path class="i" d="M435.9,104.5a.117.117,0,0,0-.134-.05.075.075,0,0,0,0,.117.109.109,0,0,0,.134.05.075.075,0,0,0,0-.117Z" transform="translate(-421.743 -90.092)"/><path class="i" d="M436.232,104.629a.134.134,0,0,0-.142-.05.084.084,0,0,0,0,.117.126.126,0,0,0,.134.05.084.084,0,0,0,.008-.117Z" transform="translate(-422.344 -90.114)"/><path class="i" d="M436.6,104.759a.109.109,0,0,0-.134-.05.075.075,0,0,0-.042.117.117.117,0,0,0,.142.042.075.075,0,0,0,.034-.109Z" transform="translate(-422.985 -90.134)"/><path class="i" d="M436.877,104.886a.134.134,0,0,0-.142,0,.084.084,0,0,0,0,.117.117.117,0,0,0,.134,0,.075.075,0,0,0,.008-.117Z" transform="translate(-423.534 -90.161)"/><path class="i" d="M437.132,105a.109.109,0,0,0-.134,0,.075.075,0,0,0,0,.109.109.109,0,0,0,.134.05.08.08,0,1,0,0-.159Z" transform="translate(-424.065 -90.178)"/><path class="i" d="M448.4,109.888l.7-.276-.184-.3-.7.276Zm.645-.293-.628.243-.151-.234.636-.251Z" transform="translate(-445.378 -90.883)"/><path class="i" d="M448.33,109.566l.452-.176.126.2-.452.176Z" transform="translate(-445.27 -90.896)"/><path class="i" d="M449.221,109.9l.059-.025-.092-.167-.067.025Z" transform="translate(-446.303 -90.948)"/><path class="h" d="M442.059,107.034l1.373-.536a.075.075,0,0,0,0-.109h0a.109.109,0,0,0-.134-.05l-1.373.544a.075.075,0,0,0,0,.109h0a.109.109,0,0,0,.134.042Z" transform="translate(-434.435 -90.399)"/><path class="j" d="M434.029,115.537a4.187,4.187,0,0,0,4.865,1.675,2.73,2.73,0,0,0,1.34-4.112,4.187,4.187,0,0,0-4.874-1.675,2.713,2.713,0,0,0-1.331,4.112Z" transform="translate(-424.688 -91.19)"/><path class="j" d="M436.977,117.672a4.137,4.137,0,0,0,2.018-.234,3.006,3.006,0,0,0,1.834-1.859,3.14,3.14,0,0,0-.36-2.663,4.564,4.564,0,0,0-5.343-1.826,3.057,3.057,0,0,0-1.834,1.851,3.107,3.107,0,0,0,.368,2.663h0A4.572,4.572,0,0,0,436.977,117.672Zm.168-6.7a4.505,4.505,0,0,1,3.249,2.035,3.057,3.057,0,0,1,.36,2.588,2.956,2.956,0,0,1-1.792,1.8,4.463,4.463,0,0,1-5.234-1.792h0a3.048,3.048,0,0,1-.352-2.6,2.94,2.94,0,0,1,1.784-1.8A4.187,4.187,0,0,1,437.144,110.973Z" transform="translate(-424.621 -91.131)"/><path class="h" d="M438.05,115.4l1.2-.469-1.39-2.269-1.2.469Z" transform="translate(-425.837 -91.428)"/><path class="h" d="M437.19,116.744a.067.067,0,0,0,0-.1l-.486-.787a.084.084,0,0,0-.109,0,.059.059,0,0,0,0,.092l.486.837A.092.092,0,0,0,437.19,116.744Z" transform="translate(-423.729 -91.944)"/><path class="h" d="M436.186,116.17a.092.092,0,0,0,.109,0l1.675-.662a.059.059,0,0,0,0-.092.109.109,0,0,0-.117,0l-1.675.662a.067.067,0,0,0,.008.092Z" transform="translate(-424.166 -91.873)"/><path class="h" d="M436.136,114.317a.067.067,0,0,0,0,.1l.561.913a.092.092,0,0,0,.109,0,.059.059,0,0,0,0-.092l-.561-.913A.084.084,0,0,0,436.136,114.317Z" transform="translate(-422.96 -91.695)"/><path class="h" d="M438.2,115.107a.059.059,0,0,0,0,.092l.561.921a.092.092,0,0,0,.109,0,.059.059,0,0,0,0-.092l-.561-.913A.084.084,0,0,0,438.2,115.107Z" transform="translate(-426.744 -91.823)"/><path class="h" d="M436.071,117.046l.971-.368a.067.067,0,0,0,0-.1.092.092,0,0,0-.109,0l-.938.368a.059.059,0,0,0,0,.092.092.092,0,0,0,.075.008Z" transform="translate(-423.079 -92.062)"/><path class="k" d="M423.95,126.907l.059.109a12.478,12.478,0,0,1,1.884-.636c1.541-.067,2.085.837,2.512.7s.176-1.8.779-2.043,1.064.184,1.482,0,.218-.687,1.172-1.055,1.75.435,2.295.218.544-1.4,1.214-1.675l1.675-.67-.067-.109-1.675.678c-.67.26-1.826-.469-2.37-.251s-.251,1.214-1.2,1.591-1.348-.075-1.767.092-.285.712-.888.946-2.135-.9-2.512-.754.134,1.1-.837,2.035a11.484,11.484,0,0,1-1.759.829Z" transform="translate(-412.968 -92.904)"/><path class="l" d="M423.84,126.9l.059.109c.955-.377,2.211,1.231,3,.921.569-.226.268-1.876,1-2.161s1.122.327,1.549.159.134-1.147.837-1.407,2.211,1.591,2.906,1.315-.126-2.236.519-2.512.888,0,1.44-.193.8-.837,1.373-1.089l.477-.184-.067-.1-.477.184c-.569.226-1.348,0-1.909.2s-.427.536-1.072.787-2.085-1.465-2.78-1.2.327,2.336-.477,2.646c-.678.268-1.449-.519-1.893-.343s-.092.837-.8,1.08-2.177-.913-2.738-.687C423.982,124.758,424.786,126.533,423.84,126.9Z" transform="translate(-412.858 -92.899)"/><path class="j" d="M436.994,121.721v-.059h0c-.67.268-1.323-.159-1.968-.3a.837.837,0,0,0-.921.268,9.064,9.064,0,0,0-.494.837,1.114,1.114,0,0,1-.837.569,3.35,3.35,0,0,1-1-.1.528.528,0,0,0-.444.243,4.621,4.621,0,0,0-.234.452.955.955,0,0,1-.8.519c-.678,0-1.223-.578-1.943-.519a.67.67,0,0,0-.435.268,1.366,1.366,0,0,0-.176.486c-.059.327-.1.712-.427.837a1.675,1.675,0,0,1-.98,0,1.105,1.105,0,0,0-.988.193,8.119,8.119,0,0,0-.636.837,1.893,1.893,0,0,1-.837.469h-.05a2.094,2.094,0,0,1,.955-.26c.335,0,.67.084,1.013.1a1,1,0,0,0,.921-.394c.184-.293.343-.6.67-.712.662-.234,1.223.477,1.934.41a.628.628,0,0,0,.452-.243,1.189,1.189,0,0,0,.184-.486,1.792,1.792,0,0,1,.343-.93,1.147,1.147,0,0,1,.946-.2,2.052,2.052,0,0,0,1,.109c.352-.142.327-.6.636-.77a1.3,1.3,0,0,1,.963-.193,5.257,5.257,0,0,1,1,.2,1.013,1.013,0,0,0,.963-.159,2.152,2.152,0,0,0,.419-.921,1.131,1.131,0,0,1,.762-.553Zm0,0a1.147,1.147,0,0,0-.662.729,2.22,2.22,0,0,1-.419.913,1,1,0,0,1-.955.151c-.327-.067-.653-.159-1-.2a1.273,1.273,0,0,0-.98.193c-.318.176-.3.636-.636.762s-.653-.067-.988-.117a1.181,1.181,0,0,0-.98.209,1.675,1.675,0,0,0-.352.946.729.729,0,0,1-.595.687c-.678.075-1.223-.662-1.96-.427a1.574,1.574,0,0,0-.7.737.913.913,0,0,1-.837.36c-.335,0-.662-.092-1.013-.109a2.37,2.37,0,0,0-.988.26h.05v.067a2.01,2.01,0,0,0,.888-.5,8.65,8.65,0,0,1,.611-.837c.536-.5,1.3.092,1.951-.218.368-.151.4-.569.461-.837a.745.745,0,0,1,.561-.72c.678-.067,1.231.536,1.943.511a.988.988,0,0,0,.837-.544c.084-.151.134-.31.226-.452a.5.5,0,0,1,.419-.226c.327,0,.662.184,1,.1a1.156,1.156,0,0,0,.837-.586,10.037,10.037,0,0,1,.486-.888.837.837,0,0,1,.913-.268c.645.142,1.3.561,1.968.293h0Z" transform="translate(-412.932 -92.836)"/><path class="d" d="M430.459,118.961h-.042a.226.226,0,0,1-.092.084h-.084a.185.185,0,0,1,.059-.05h0l.059-.05a.109.109,0,0,0,0-.067.109.109,0,0,0,0-.05.159.159,0,0,0-.1-.059.193.193,0,0,0-.117,0,.369.369,0,0,0-.1.092h.05c.05,0,0-.059.067-.067a.125.125,0,0,1,.075,0,.075.075,0,0,1,.05,0h0a.184.184,0,0,1-.059.059h0l-.067.05a.092.092,0,0,0,0,.067.109.109,0,0,0,0,.05.193.193,0,0,0,.1.067.209.209,0,0,0,.126,0,.218.218,0,0,0,.117-.109Z" transform="translate(-411.546 -92.42)"/><path class="d" d="M430.868,119.142a.209.209,0,0,0-.226-.084.134.134,0,0,0-.067.184h.05l.184-.075v.042a.059.059,0,0,1-.042.05.092.092,0,0,1-.067,0h-.042a.142.142,0,0,0,.117,0,.126.126,0,0,0,.092-.117Zm-.084,0-.159.059a.075.075,0,0,1,.05-.092A.092.092,0,0,1,430.784,119.142Z" transform="translate(-412.349 -92.467)"/><path class="d" d="M431.009,119.229h.05l.092.151h.05a.059.059,0,0,0,0-.084l-.092-.151h-.05l-.05-.075h-.05l.05.075h0S430.992,119.212,431.009,119.229Z" transform="translate(-413.035 -92.47)"/><path class="d" d="M431.463,119.6l.067.1h.05a.184.184,0,0,0,.092,0,.117.117,0,0,0,.067-.075.109.109,0,0,0,0-.109.218.218,0,0,0-.092-.084.167.167,0,0,0-.126,0,.142.142,0,0,0-.067.05h-.042Zm.067,0a.109.109,0,0,1,0-.067.1.1,0,0,1,.042,0,.092.092,0,0,1,.067,0,.109.109,0,0,1,.059.05.076.076,0,0,1,0,.059l-.042.042h-.067a.126.126,0,0,1-.059-.109Z" transform="translate(-413.949 -92.526)"/><path class="d" d="M431.9,119.727l.075.126h.05l-.084-.134a.059.059,0,0,1,0-.075.067.067,0,0,1,.092,0l.084.126h0a.059.059,0,0,0,.05,0h0l-.075-.126-.05-.084h-.126a.109.109,0,0,0-.017.167Z" transform="translate(-414.748 -92.55)"/><path class="d" d="M432.531,119.964l.067.1h.05a.142.142,0,0,0,.159-.084.109.109,0,0,0,0-.109.173.173,0,0,0-.218-.084.159.159,0,0,0-.067.059h-.042Zm.067,0a.067.067,0,0,1,0-.109h.067a.109.109,0,0,1,.059.05.075.075,0,0,1,0,.059H432.6Z" transform="translate(-415.897 -92.585)"/><path class="d" d="M432.88,119.82v.042l.193.318h.05l-.193-.318Z" transform="translate(-416.547 -92.592)"/><path class="d" d="M433.145,120.246l.067.1h.05a.118.118,0,0,0,.159-.075.109.109,0,0,0,0-.109.176.176,0,0,0-.092-.084.217.217,0,0,0-.126,0,.1.1,0,0,0-.059.059h-.05c-.05,0,0,0,0,.042Zm.067,0a.109.109,0,0,1,0-.067.1.1,0,0,1,.042,0,.092.092,0,0,1,.067,0,.109.109,0,0,1,.059.05.075.075,0,0,1,0,.059h-.042a.092.092,0,0,1-.067,0,.126.126,0,0,1-.059-.067Z" transform="translate(-417.021 -92.633)"/><path class="d" d="M433.547,120.267a.067.067,0,0,0,.05,0h.1l.059.109a.05.05,0,0,0,.05,0h0l-.134-.218h-.05a.117.117,0,0,0-.092,0A.693.693,0,0,0,433.547,120.267Z" transform="translate(-417.774 -92.646)"/><path class="d" d="M434.09,120.489h0l.075.126h.05l-.084-.126h0a.059.059,0,0,1,0-.084.109.109,0,0,1,.092,0l.075.126h.05v-.042l-.075-.126h0l-.05-.084H434.1a.117.117,0,0,0-.067.075.126.126,0,0,0-.109,0,.1.1,0,0,0-.05.159l.075.126H434V120.6l-.075-.126V120.4a.1.1,0,0,1,.168.092Z" transform="translate(-418.585 -92.667)"/><path class="d" d="M434.722,120.64h.05l.109.193h.05l-.117-.193h-.05l-.042-.05h0Z" transform="translate(-419.871 -92.717)"/><path class="d" d="M435.218,120.96a.168.168,0,0,0,0-.109.193.193,0,0,0-.1-.084.167.167,0,0,0-.126,0,.153.153,0,0,0-.067.193.2.2,0,0,0,.092.075.167.167,0,0,0,.126,0,.1.1,0,0,0,.075-.075Zm-.084-.084a.084.084,0,0,1,0,.059.067.067,0,0,1-.042,0,.092.092,0,0,1-.067,0,.1.1,0,0,1-.059,0,.067.067,0,0,1,0-.067.059.059,0,0,1,0-.042h.075a.1.1,0,0,1,.109.059Z" transform="translate(-420.35 -92.744)"/><path class="d" d="M435.3,120.977h.184l.067.1h.059l-.126-.209h-.05a.1.1,0,0,0-.084,0A.634.634,0,0,0,435.3,120.977Z" transform="translate(-421.061 -92.761)"/><path class="d" d="M435.87,121.091l.335.26h.042v-.042l-.293-.226.184-.092v-.05h-.05l-.2.084h0Z" transform="translate(-422.175 -92.774)"/><path class="d" d="M436.232,121.239a.042.042,0,0,0,0,.059.067.067,0,0,0,.067,0v-.05a.059.059,0,0,0-.067-.008Zm.126.209v.059a.059.059,0,0,0,.067,0v-.059A.05.05,0,0,0,436.358,121.448Z" transform="translate(-422.645 -92.822)"/><path class="d" d="M436.46,121.448a.151.151,0,0,0,0,.117.193.193,0,0,0,.1.075.159.159,0,0,0,.126,0,.126.126,0,0,0,.075-.084h-.117a.075.075,0,0,1-.05-.05.05.05,0,0,1,0-.059h.042a.05.05,0,0,0-.059,0l-.167.067h0l.117.042Z" transform="translate(-423.142 -92.855)"/><path class="d" d="M437.185,121.536a.368.368,0,0,0-.117-.109.176.176,0,0,0-.142,0,.117.117,0,0,0-.075.1.343.343,0,0,0,.042.142.393.393,0,0,0,.117.117.176.176,0,0,0,.142,0,.117.117,0,0,0,.075-.1.259.259,0,0,0-.042-.151Zm-.226.092a.2.2,0,0,1,0-.109.058.058,0,0,1,0-.05.084.084,0,0,1,.075,0,.2.2,0,0,1,.084.084.227.227,0,0,1,0,.109.059.059,0,0,1,0,.059.151.151,0,0,1-.075,0,.2.2,0,0,1-.084-.092Z" transform="translate(-423.975 -92.851)"/><path class="d" d="M437.557,121.967l.067.109h.05a.167.167,0,0,0,.092,0,.109.109,0,0,0,.075-.075.126.126,0,0,0,0-.109.193.193,0,0,0-.1-.084.159.159,0,0,0-.184.05h-.042v.042Zm.059,0a.039.039,0,0,1,.042-.067.092.092,0,0,1,.067,0,.151.151,0,0,1,.059,0,.1.1,0,0,1,0,.067h0a.092.092,0,0,1-.067,0Z" transform="translate(-425.16 -92.914)"/><path class="d" d="M438.24,122.131h0l.075.134a.059.059,0,0,0,.05,0h0l-.075-.126h0v-.075a.092.092,0,0,1,.092,0l.075.126h.042l-.075-.126h0l-.05-.084h-.126a.117.117,0,0,0-.067.075.126.126,0,0,0-.109,0,.1.1,0,0,0-.05.159l.075.126h.05l-.075-.126v-.075a.084.084,0,0,1,.168-.008Z" transform="translate(-426.211 -92.943)"/><path class="j" d="M426.136,131.437l4.463-1.75-.8-1.306-4.455,1.75Z" transform="translate(-407.709 -93.984)"/><path class="h" d="M427.536,129.626a.276.276,0,0,0-.327-.109.176.176,0,0,0-.109.092v.05h.05a.2.2,0,0,1,.075-.067.218.218,0,0,1,.126,0,.193.193,0,0,1,.1.075.109.109,0,0,1,0,.109.126.126,0,0,1-.075.084.193.193,0,0,1-.117,0h-.042a.059.059,0,0,0,0,.042.26.26,0,0,0,.159,0,.184.184,0,0,0,.159-.276Z" transform="translate(-406.145 -94.166)"/><path class="h" d="M427.749,130.03l.142-.059.067.059h0v-.042l-.327-.268h-.042l.067.368h.042Zm0-.067v-.134l.117.092Z" transform="translate(-406.952 -94.202)"/><path class="h" d="M428.36,130.208h.05l-.193-.318h-.042v.31l-.142-.218h-.05l.193.31h.05v-.31Z" transform="translate(-407.756 -94.229)"/><path class="h" d="M429.057,130.216a.276.276,0,0,0-.327-.109.176.176,0,0,0-.109.092s0,0,0,.05h.05a.2.2,0,0,1,.075-.067.159.159,0,0,1,.126,0,.193.193,0,0,1,.1.075.109.109,0,0,1,0,.109.151.151,0,0,1-.075.084.193.193,0,0,1-.117,0h-.042a.209.209,0,0,0,.159,0,.184.184,0,0,0,.159-.234Z" transform="translate(-408.922 -94.262)"/><path class="h" d="M429.485,130.588l-.193-.318h-.05l-.193.067h.05l.151-.059.059.1-.134.05h.05l.134-.05.059.1-.159.059v.042h.05l.184-.067h0S429.494,130.6,429.485,130.588Z" transform="translate(-409.71 -94.291)"/><path class="h" d="M429.7,130.75l-.193-.31h-.05v.042l.176.285-.159.059v.042h.05l.184-.067h0A.146.146,0,0,0,429.7,130.75Z" transform="translate(-410.271 -94.319)"/><path class="i" d="M432.846,120.892l.1-.042h0l-.226.092h.109l.168.285h0Z" transform="translate(-416.286 -92.76)"/><path class="i" d="M432.9,121.161l.126.193h0a.117.117,0,0,0,.117,0,.092.092,0,0,0,.042-.151.151.151,0,0,0-.176-.067.1.1,0,0,0-.067.075h0S432.9,121.153,432.9,121.161Zm.084.084a.084.084,0,0,1,0-.126.142.142,0,0,1,.151.059.084.084,0,0,1-.042.126.134.134,0,0,1-.109-.059Z" transform="translate(-416.651 -92.803)"/><path class="i" d="M433.35,121.319h0l-.059-.1h0a.184.184,0,0,0-.117,0,.109.109,0,0,0,0,.159.159.159,0,0,0,.184.067.1.1,0,0,0,.059-.084l.075.126h0Zm0,0a.084.084,0,0,1,0,.126.117.117,0,0,1-.142-.05.084.084,0,0,1,0-.126.126.126,0,0,1,.142.05Z" transform="translate(-417.134 -92.818)"/><path class="i" d="M433.98,121.444h0l.1.167h0v-.05l-.1-.167h0l-.05-.084h0l.05.084h0Z" transform="translate(-418.384 -92.834)"/><path class="i" d="M434.129,121.558a.1.1,0,0,0-.05.151.159.159,0,0,0,.184.067.1.1,0,0,0,.042-.159A.151.151,0,0,0,434.129,121.558Zm.117.193a.117.117,0,0,1-.142-.05v-.126a.142.142,0,0,1,.151.059.084.084,0,0,1-.008.117Z" transform="translate(-418.742 -92.873)"/><path class="i" d="M434.864,121.826a.142.142,0,0,0-.184-.059.092.092,0,0,0-.05.142h0l.2-.075a.075.075,0,0,1-.042.117.109.109,0,0,1-.1,0h0a.167.167,0,0,0,.126,0,.1.1,0,0,0,.05-.126Zm0,0-.184.075a.084.084,0,0,1,.05-.109.134.134,0,0,1,.1.025Z" transform="translate(-419.745 -92.907)"/><path class="i" d="M435.169,122.113a.142.142,0,0,0,.117,0,.109.109,0,0,0,.025-.134.168.168,0,0,0-.184-.067.109.109,0,0,0-.067.084l-.075-.126h0l.117.193h0l.059.1h0Zm-.042-.067h0a.084.084,0,0,1,0-.126.151.151,0,0,1,.151.05.084.084,0,0,1-.042.126A.117.117,0,0,1,435.127,122.046Z" transform="translate(-420.51 -92.925)"/><path class="i" d="M435.3,121.94Zm.042.067h0l.126.2h0Z" transform="translate(-420.918 -92.937)"/><path class="i" d="M435.709,122.092h0l.092.159h0v-.059l-.1-.159h-.05l-.05-.084h0l.05.084h0S435.7,122.092,435.709,122.092Z" transform="translate(-421.503 -92.938)"/><path class="i" d="M431.884,120.838a.251.251,0,0,0,.3.109.176.176,0,0,0,.084-.26.26.26,0,0,0-.3-.1.167.167,0,0,0-.084.251Z" transform="translate(-414.864 -92.715)"/><path class="h" d="M432.171,120.876h0l.042-.126h0l-.142-.05h0l.117.042Z" transform="translate(-414.958 -92.735)"/><path class="a" d="M423.662,135.324s2.353-8.475,1.273-11.448-8.592-3.877-11.18-4.028c-3.584-.2-3.04,2.7-1.532,3.919a49.232,49.232,0,0,0,4.932,3.35,19.164,19.164,0,0,0-1.373,12.3Z" transform="translate(-390.371 -92.595)"/><path class="d" d="M378.645,136.609l-19.83,15.132s10.476,19.2,18.206,21.991,10.166,1.968,12.327,1.549S407.77,162,418.657,142.194c10.267-18.708-1.675-13.089-10.568-6.59-5.066,3.7-21.237,13.323-21.865,13.114S378.645,136.609,378.645,136.609Z" transform="translate(-344.014 -94.157)"/><path class="f" d="M427.314,143.328c-3.09,2.278-6.113,4.648-9.111,7.043-1.474,1.172-7.135,6.071-8.768,7.445-.067.059.084.234.159.184,1.6-1.164,7.579-5.937,9.027-7.143,2.956-2.437,5.862-4.9,8.759-7.453C427.432,143.361,427.365,143.286,427.314,143.328Z" transform="translate(-391.176 -96.412)"/><path class="f" d="M358.867,173.019a106.756,106.756,0,0,0,25.7-30.825c5.46-9.957,4.623-13.022,1.306-12.737C382.993,134,367.359,159.269,358.867,173.019Z" transform="translate(-309.958 -94.156)"/><path class="b" d="M377.4,202.029c-.134.142-57.782-.268-58.335-.837C318.334,200.354,332,138,338,130.337c1.29-1.675,5.468-2.052,9.011-1.574a15.485,15.485,0,0,1,2.73.586h.092a6.364,6.364,0,0,1,2,1c9.8,7.989,17.829,35.641,19.688,43.939C374.6,187.96,377.874,201.484,377.4,202.029Z" transform="translate(-265.531 -94.015)"/><path class="d" d="M318.713,129.63s-3.76,25.675-4.648,32.316-.042,41.8-.042,41.8l36.185,3.057s-7.537-23.347-7.662-24.821c0,0-6-28.054-12.193-39.635a35.079,35.079,0,0,0-11.64-12.712Z" transform="translate(-233.795 -94.187)"/><path class="f" d="M313.69,133.47l10.886,72.562,16.405,1.39s-7.537-23.347-7.654-24.821c0,0-6.013-28.054-12.2-39.643a35.648,35.648,0,0,0-7.436-9.488Z" transform="translate(-224.593 -94.811)"/><path class="d" d="M386.9,130.28s-4.112,25.876-4.547,28.02-6.7,44.341-6.7,44.341l-9.061.193,4.916-19.261S382.526,135.748,386.9,130.28Z" transform="translate(-314.809 -94.293)"/><path class="a" d="M357.842,136.2c2.747.31,7.955-3.509,9.413-7.537.092-.276-.729-2.914-1.566-6.163-.511-1.976-1.022-4.187-1.348-6.239-.067-.419-12.369,5.167-12.369,5.167a32.926,32.926,0,0,1,2.512,7.671,5.084,5.084,0,0,1,.042.837v.142C354.5,131.708,354.894,135.87,357.842,136.2Z" transform="translate(-282.931 -92.011)"/><path class="d" d="M358.547,129.946a.722.722,0,0,1,0,.134,8.633,8.633,0,0,0,1.331-.134c7.537-1.365,8.039-11.154,8.048-13.616-2.236.687-11.916,5.083-11.916,5.083a32.9,32.9,0,0,1,2.512,7.679A4.925,4.925,0,0,1,358.547,129.946Z" transform="translate(-286.978 -92.025)"/><path class="a" d="M374.858,95.529c1.968,4.4,1.214,17.946-1.675,21.3-4.187,4.874-11.875,6.256-16.221,1.03-4.187-5.025-2.923-22.686.385-25.826C362.213,87.389,371.935,89.064,374.858,95.529Z" transform="translate(-293.582 -87.645)"/><path class="d" d="M368.866,108.12s.067.05.067.084c-.075.913,0,1.968.837,2.311v.05C368.741,110.373,368.649,108.974,368.866,108.12Z" transform="translate(-299.508 -90.69)"/><path class="d" d="M368.44,107c1.474,0,1.44,2.914.075,2.948S367.209,107.059,368.44,107Z" transform="translate(-298.218 -90.508)"/><path class="d" d="M377.127,108.22s-.067,0-.067.084c0,.913-.117,1.96-.946,2.253v.05C377.135,110.481,377.269,109.083,377.127,108.22Z" transform="translate(-313.06 -90.706)"/><path class="d" d="M377.3,107.069c-1.465-.126-1.616,2.822-.251,2.939S378.535,107.178,377.3,107.069Z" transform="translate(-314.042 -90.518)"/><path class="d" d="M368.72,105.031a10.89,10.89,0,0,1-1.139-.419,1.943,1.943,0,0,1-1.08-.645.62.62,0,0,1,.109-.754,1.549,1.549,0,0,1,1.558-.142,2.253,2.253,0,0,1,1.3,1,.662.662,0,0,1-.745.963Z" transform="translate(-297.318 -89.845)"/><path class="d" d="M376.282,104.906c.41-.067.779-.193,1.181-.293a1.976,1.976,0,0,0,1.139-.528.628.628,0,0,0,0-.762,1.566,1.566,0,0,0-1.541-.31,2.32,2.32,0,0,0-1.39.837.67.67,0,0,0,.611,1.055Z" transform="translate(-314.142 -89.846)"/><path class="d" d="M370.671,118.248c-.218.218-.444.5-.779.528a2.311,2.311,0,0,1-.971-.243l-.042.05a1.231,1.231,0,0,0,1.147.511.963.963,0,0,0,.729-.837C370.805,118.239,370.738,118.222,370.671,118.248Z" transform="translate(-300.601 -92.334)"/><path class="d" d="M375.321,113.074a3.115,3.115,0,0,1-2.094,1.365,3.819,3.819,0,0,1-1.114,0,.914.914,0,0,1-.218,0h-.2a.226.226,0,0,1-.176-.209h0a.311.311,0,0,1,0-.092h0v-.084c0-.7.075-1.767.075-1.767-.26.126-1.574.7-1.549.327a45.932,45.932,0,0,1,1.315-9.4c0-.1.176-.075.167,0-.1,2.931-.7,5.862-.837,8.768a5.393,5.393,0,0,1,1.474-.435c.1,0-.193,2.068-.159,2.378h0a4.3,4.3,0,0,0,3.232-.955C375.3,112.914,375.38,112.981,375.321,113.074Z" transform="translate(-306.146 -89.882)"/><path class="d" d="M369.631,116.022a3.634,3.634,0,0,0,1.465,1.164,1.675,1.675,0,0,0,1,.075c.729-.184.754-.837.628-1.424a3.66,3.66,0,0,0-.318-.837A4.757,4.757,0,0,1,369.631,116.022Z" transform="translate(-303.245 -91.809)"/><path class="m" d="M369.631,117.348a1.675,1.675,0,0,0,1,.075c.729-.184.754-.837.628-1.424A1.675,1.675,0,0,0,369.631,117.348Z" transform="translate(-301.779 -91.971)"/><path class="d" d="M374.79,107.627c-2.378-.578-3.877-8.374-3.877-8.374s.151,3.35-.477,3.283-3.35-4.489-3.794-7.738a25.339,25.339,0,0,1-5.862,3.14c-2.939,1-6.239.93-6.264.427-.059-1.507,1.164-5.493,3.149-6.967a10.66,10.66,0,0,1,10.526-1.675,10.3,10.3,0,0,1,7.143,7.135C376.147,99.253,375.661,107.836,374.79,107.627Z" transform="translate(-293.548 -87.584)"/><path class="a" d="M351.72,109.532s2.512-4.606,4.606-3.743.461,7.319-1.733,8.374a2.345,2.345,0,0,1-3.249-.921Z" transform="translate(-272.438 -90.294)"/><path class="d" d="M356.285,108s.05,0,0,.059a5.953,5.953,0,0,0-2.646,3.994,1.29,1.29,0,0,1,1.884-.553c.042,0,0,.092,0,.092a1.432,1.432,0,0,0-1.524.662,6.623,6.623,0,0,0-.62,1.357c-.059.151-.327.1-.293-.075h0C352.827,111.467,354.116,108.444,356.285,108Z" transform="translate(-272.883 -90.67)"/><path class="c" d="M349.576,89.11a19.261,19.261,0,0,1,5.359-1.616c2.068-.268,6.364-.67,9.639,2.177,2.722,2.353,2.554,6.817,2.6,7.721s-.343,6.356-2.311,7.679-2.228-7.972-5.309-11S349.576,89.11,349.576,89.11Z" transform="translate(-280.837 -87.306)"/><path class="n" d="M350.38,89.218s6.85,1.893,9.974,4.958,3.35,12.327,5.318,11a4.439,4.439,0,0,0,1.633-2.9c-.419-2.7-1.524-6.9-3.785-9.8-2.127-2.722-5.761-4.087-9.655-4.514A21.88,21.88,0,0,0,350.38,89.218Z" transform="translate(-281.641 -87.414)"/><path class="c" d="M371,110.826c-.184-2.454-2.7-9.011-5.326-12.771s-10.325-5.929-11.4-5.862c-2.613.159-3.5.955-3.911.72s2.269-2.2,3-2.646a9.79,9.79,0,0,1,3.844-1.457c1.131.025,8.14.7,10.694,3.676s6.18,11.33,5.527,13.474c-.159.519-.837.837-1.055,1.574-.285.963-.486,2.068-.77,2.738C371.373,110.8,371.021,111.043,371,110.826Z" transform="translate(-287.803 -87.55)"/><path class="d" d="M356.613,97.3a12.47,12.47,0,0,0,1.675-1.256,8.761,8.761,0,0,0,1.449-1.549h.067a6.7,6.7,0,0,1-1.315,1.75,5.862,5.862,0,0,1-1.817,1.189C356.6,97.429,356.546,97.329,356.613,97.3Z" transform="translate(-279.341 -88.474)"/><path class="d" d="M351.025,111.368c.067-.184.184-.335.268-.511a2.62,2.62,0,0,0,.226-.6,5.714,5.714,0,0,1,.276-1.189,4.27,4.27,0,0,1,.578-.837,1.675,1.675,0,0,0,.477-1,.042.042,0,1,1,.084,0,4.188,4.188,0,0,1-.837,1.9,8.218,8.218,0,0,0-.335,1.281,1.868,1.868,0,0,1-.645,1.022C351.083,111.477,351,111.427,351.025,111.368Z" transform="translate(-267.807 -90.538)"/><path class="d" d="M351.608,108.259a9.212,9.212,0,0,0,.687-.837,8.416,8.416,0,0,0,.528-.921c.151-.31.285-.636.427-.955s.394-.72.553-1.105c0,0,.092,0,.075.042-.167.394-.26.837-.41,1.214a9.061,9.061,0,0,1-.461,1,5.694,5.694,0,0,1-.578.837,2.512,2.512,0,0,1-.787.7Z" transform="translate(-269.244 -90.092)"/><path class="d" d="M352.535,105.532a7.135,7.135,0,0,0,1.331-1.507c.352-.553.678-1.139,1-1.675h.075a8.526,8.526,0,0,1-.837,1.867,3.962,3.962,0,0,1-.62.779,4.641,4.641,0,0,1-.888.611C352.543,105.624,352.493,105.566,352.535,105.532Z" transform="translate(-271.067 -89.752)"/><path class="d" d="M353.778,102.782a2.311,2.311,0,0,0,.653-.653c.209-.276.41-.561.611-.837s.385-.544.569-.837a2.328,2.328,0,0,0,.435-.9h.084a2.6,2.6,0,0,1-.276.963,8.424,8.424,0,0,1-.553.963q-.322.435-.687.837a1.675,1.675,0,0,1-.787.544C353.761,102.9,353.719,102.816,353.778,102.782Z" transform="translate(-273.29 -89.297)"/><path class="d" d="M355.77,99.5c.234-.226.452-.452.662-.7s.4-.486.595-.737a8.626,8.626,0,0,0,.595-.837h.075a5.986,5.986,0,0,1-.452.9,7.778,7.778,0,0,1-.586.837,7.673,7.673,0,0,1-.678.7,2.412,2.412,0,0,1-.8.561.059.059,0,0,1-.067-.084,4.939,4.939,0,0,1,.653-.645Z" transform="translate(-275.994 -88.919)"/><path class="d" d="M358.432,95.6c.243-.3.477-.6.745-.879a8.767,8.767,0,0,1,.837-.8,10.123,10.123,0,0,1,1.9-1.29s.084,0,.05.059c-1.164,1-2.362,1.951-3.509,2.956C358.449,95.7,358.4,95.646,358.432,95.6Z" transform="translate(-283.044 -88.173)"/><path class="d" d="M361.4,93.287a4.933,4.933,0,0,1,.837-.787,11,11,0,0,1,2.1-1.181.043.043,0,0,1,.042.075c-.636.419-1.281.837-1.893,1.3a7,7,0,0,0-.837.72c-.243.26-.486.569-.754.837h-.05a3.073,3.073,0,0,1,.553-.963Z" transform="translate(-287.499 -87.958)"/><path class="d" d="M364.421,92.172a5.214,5.214,0,0,1,.762-.787,6.239,6.239,0,0,1,1.792-1.055c.042,0,.067.05,0,.067a12.832,12.832,0,0,0-1.675,1.231l-.77.712a8.966,8.966,0,0,1-.737.754s-.05,0,0,0a5.634,5.634,0,0,1,.628-.921Z" transform="translate(-292.567 -87.798)"/><path class="d" d="M367.659,90.869c.26-.209.528-.41.8-.6a3.266,3.266,0,0,1,.837-.486.042.042,0,0,1,0,.075c-.5.4-1,.837-1.482,1.223a8.374,8.374,0,0,0-1.105,1.4h-.042a3.107,3.107,0,0,1,1-1.608Z" transform="translate(-297.287 -87.708)"/><path class="d" d="M369.911,90.412a5.167,5.167,0,0,1,1.633-1.022c.042,0,.075.05,0,.075a6.021,6.021,0,0,0-1.482,1.122,8.131,8.131,0,0,0-1.172,1.457h-.05a4.187,4.187,0,0,1,1.072-1.633Z" transform="translate(-301.381 -87.645)"/><path class="d" d="M371.211,91.519a3.208,3.208,0,0,1,.209-.368,4.19,4.19,0,0,1,.544-.67,8.708,8.708,0,0,1,1.39-1.08c.042,0,.092,0,.042.067a7.479,7.479,0,0,0-1.3,1.114,5.8,5.8,0,0,0-.528.653c-.075.109-.142.226-.209.343a2.435,2.435,0,0,1-.209.352h-.067a1.221,1.221,0,0,1,.126-.41Z" transform="translate(-305.093 -87.646)"/><path class="d" d="M373.927,91.784a5.667,5.667,0,0,1,.452-.553,6.871,6.871,0,0,1,.5-.486c.184-.159.377-.31.553-.469s.1,0,.059.059a3.8,3.8,0,0,0-.519.519l-.461.511-.461.519a5.546,5.546,0,0,1-.452.528h-.05a3.223,3.223,0,0,1,.377-.628Z" transform="translate(-309.283 -87.778)"/><path class="a" d="M321.557,135.94c14.521,16.3,25.449,39.267,25.315,44.668-.142,5.946-7.713,26.9-14.923,36.746-.93,1.264-6.549.729-11.305-1.884-5.025-2.763-9.12-7.687-8.14-9.153,3.7-5.5,12.469-26.839,12.394-30.147-.075-3.09-7.26-21.965-10-32.885C312.262,132.767,314.807,128.353,321.557,135.94Z" transform="translate(-229.37 -94.594)"/><path class="d" d="M338.74,215.709,311.7,202.5s10.635-23.724,10.652-26.287-6.992-22.61-9.63-31.906-1.616-19.688,9.932-5.669,21.656,34.837,22.786,40.38S338.74,215.709,338.74,215.709Z" transform="translate(-227.343 -94.54)"/><path class="e" d="M348.531,173.409q-.837-2.638-1.725-5.267-1-2.939-2.077-5.862c-.7-1.893-1.491-3.735-2.253-5.6-.05-.134-.293-.05-.243.092.9,2.512,1.742,5.025,2.579,7.537-.628-1.147-1.273-2.295-1.951-3.417-.05-.092-.2,0-.142.075.754,1.4,1.549,2.763,2.362,4.128l.6,1.826c1.139,3.35,2.228,6.791,3.207,10.225a11.953,11.953,0,0,1,.486,2.362,7.36,7.36,0,0,1-.4,2.688c-.494,1.583-1.047,3.157-1.608,4.715-1.122,3.149-2.353,6.247-3.643,9.329-1.465,3.5-3.132,6.959-4.8,10.376,0,0,1.013.268,1.038.285s.084,0,.059-.059a3.656,3.656,0,0,0-.653-.327c1.675-2.964,3.308-5.862,4.723-8.969s2.671-6.2,3.81-9.379c.586-1.633,1.147-3.274,1.675-4.941a9.212,9.212,0,0,0,.452-4.832,50.3,50.3,0,0,0-1.5-4.983Z" transform="translate(-254.912 -98.573)"/><path class="e" d="M342.22,220.875a27.04,27.04,0,0,0-2.948-1.39c-.888-.41-1.759-.837-2.646-1.239-1.934-.837-3.861-1.759-5.8-2.613s-3.86-1.733-5.8-2.571-3.835-1.75-5.812-2.512c-.075,0-.126.092-.059.126,1.792,1.105,3.71,2.027,5.594,2.964s3.743,1.8,5.644,2.646,3.877,1.675,5.862,2.47c.938.385,1.9.729,2.856,1.089a24.177,24.177,0,0,0,3.09,1.089.05.05,0,0,0,.025-.059Z" transform="translate(-230.379 -107.343)"/><path class="e" d="M328.261,167.152a44.166,44.166,0,0,0-3.71-7.746,39.537,39.537,0,0,0-5.091-6.925c1.44,2.512,2.931,4.9,4.371,7.353S326.72,164.74,328.261,167.152Z" transform="translate(-216.705 -97.902)"/></svg>