<svg xmlns="http://www.w3.org/2000/svg" width="32" height="32" viewBox="0 0 32 32"><defs><style>.a{fill:rgba(60,90,154,0);stroke:#fff;}.b{fill:#fff;}</style></defs><g transform="translate(-126.09 -1.926)"><circle class="a" cx="15.5" cy="15.5" r="15.5" transform="translate(126.59 2.426)"/><g transform="translate(134.31 10.146)"><path class="b" d="M10.7,0H4.862A4.863,4.863,0,0,0,0,4.862V10.7a4.863,4.863,0,0,0,4.862,4.862H10.7A4.863,4.863,0,0,0,15.559,10.7V4.862A4.863,4.863,0,0,0,10.7,0Zm3.4,10.7a3.407,3.407,0,0,1-3.4,3.4H4.862a3.407,3.407,0,0,1-3.4-3.4V4.862a3.407,3.407,0,0,1,3.4-3.4H10.7a3.407,3.407,0,0,1,3.4,3.4Z"/><g transform="translate(3.89 3.89)"><path class="b" d="M131.89,128a3.89,3.89,0,1,0,3.89,3.89A3.89,3.89,0,0,0,131.89,128Zm0,6.321a2.431,2.431,0,1,1,2.431-2.431A2.434,2.434,0,0,1,131.89,134.321Z" transform="translate(-128 -128)"/></g><g transform="translate(11.442 3.08)"><circle class="b" cx="0.518" cy="0.518" r="0.518"/></g></g></g></svg>