<svg xmlns="http://www.w3.org/2000/svg" width="53" height="53" viewBox="0 0 53 53">
  <path id="language" d="M26.5,0A26.5,26.5,0,1,0,53,26.5,26.5,26.5,0,0,0,26.5,0ZM49.419,35.784l-7.536,1.3a39.545,39.545,0,0,0,1.387-9.7h7.942a24.569,24.569,0,0,1-1.793,8.4Zm-47.63-8.4H9.731a39.546,39.546,0,0,0,1.387,9.7l-7.536-1.3a24.57,24.57,0,0,1-1.793-8.4ZM3.581,17.216l7.536-1.3a39.546,39.546,0,0,0-1.387,9.7H1.789a24.569,24.569,0,0,1,1.793-8.4Zm23.8-3.033a60.767,60.767,0,0,1,9.47.865l3.118.538A37.916,37.916,0,0,1,41.5,25.617H27.383Zm9.771-.876a62.614,62.614,0,0,0-9.771-.89V1.816c5.064.487,9.463,5.123,11.956,11.871Zm-11.537-.89a62.6,62.6,0,0,0-9.77.89l-2.186.378C16.154,6.935,20.553,2.3,25.617,1.812Zm-9.469,2.631a60.752,60.752,0,0,1,9.469-.865V25.617H11.5a37.917,37.917,0,0,1,1.532-10.031ZM11.5,27.383h14.12V38.817a60.768,60.768,0,0,1-9.47-.865l-3.118-.538A37.916,37.916,0,0,1,11.5,27.383Zm4.349,12.31a62.824,62.824,0,0,0,9.771.895v10.6c-5.064-.487-9.463-5.124-11.956-11.872Zm11.537.895a62.818,62.818,0,0,0,9.77-.895l2.186-.378c-2.493,6.75-6.892,11.388-11.956,11.872Zm9.469-2.636a60.752,60.752,0,0,1-9.469.865V27.383H41.5a37.917,37.917,0,0,1-1.532,10.031Zm6.417-12.336a39.546,39.546,0,0,0-1.387-9.7l7.536,1.3a24.569,24.569,0,0,1,1.793,8.4Zm5.256-10.347L41.3,14.023a24.358,24.358,0,0,0-7.028-11A24.85,24.85,0,0,1,48.525,15.269ZM18.727,3.025a24.358,24.358,0,0,0-7.028,11L4.475,15.269A24.851,24.851,0,0,1,18.727,3.025ZM4.475,37.731,11.7,38.977a24.358,24.358,0,0,0,7.028,11A24.85,24.85,0,0,1,4.475,37.731Zm29.8,12.244a24.358,24.358,0,0,0,7.028-11l7.224-1.247A24.851,24.851,0,0,1,34.273,49.975Zm0,0" fill="#fff"/>
</svg>
