<svg xmlns="http://www.w3.org/2000/svg" width="56.01" height="62.007" viewBox="0 0 56.01 62.007"><defs><style>.a{fill:#fff;}</style></defs><g transform="translate(-4 -0.995)"><path class="a" d="M24.9,1,13.005,2.194A9.969,9.969,0,0,0,4,12.145v39.71a9.969,9.969,0,0,0,9,9.951L24.9,63a.847.847,0,0,0,.1,0,1,1,0,0,0,1-1V42a1,1,0,0,0-1.124-.992L18,41.867V22.133l6.876.859a.988.988,0,0,0,.786-.242A1,1,0,0,0,26,22V2a1,1,0,0,0-1.1-1ZM24,60.9l-2-.2V43.383l2-.25ZM17.124,20.008A1,1,0,0,0,16,21V43a1,1,0,0,0,.338.75.989.989,0,0,0,.786.242L20,43.633V60.5l-6.8-.68A7.974,7.974,0,0,1,6,51.855V12.145a7.974,7.974,0,0,1,7.2-7.96l6.8-.68V20.367ZM24,20.867l-2-.25V3.305l2-.2Z"/><path class="a" d="M50,28H48V21a1,1,0,0,0-1-1H40a1,1,0,0,0-1,1v4a1,1,0,0,0,1,1h2v2H40a1,1,0,0,0-1,1v4a1,1,0,0,0,1,1H50a1,1,0,0,0,1-1V29A1,1,0,0,0,50,28Zm-1,4H41V30h2a1,1,0,0,0,1-1V25a1,1,0,0,0-1-1H41V22h5v7a1,1,0,0,0,1,1h2Z"/><path class="a" d="M45,19a3,3,0,1,0-3-3A3,3,0,0,0,45,19Zm0-4a1,1,0,1,1-1,1A1,1,0,0,1,45,15Z"/><path class="a" d="M45,9A15,15,0,0,0,33.084,33.111L32.04,36.722a1,1,0,0,0,1.072,1.272l5.174-.585A15,15,0,1,0,45,9Zm0,28a12.841,12.841,0,0,1-6.058-1.5,1.006,1.006,0,0,0-.467-.116.857.857,0,0,0-.113.007l-3.985.45.772-2.666a1,1,0,0,0-.189-.914A13,13,0,1,1,45,37Z"/></g></svg>