<svg xmlns="http://www.w3.org/2000/svg" width="53" height="57.818" viewBox="0 0 53 57.818"><defs><style>.a{fill:#978462;}</style></defs><g transform="translate(-0.5)"><path class="a" d="M88.5,328h5.782v1.927H88.5Zm0,0" transform="translate(-77.4 -288.491)"/><path class="a" d="M48.5,24h1.927v1.927H48.5Zm0,0" transform="translate(-42.218 -21.109)"/><path class="a" d="M80.5,24h3.855v1.927H80.5Zm0,0" transform="translate(-70.364 -21.109)"/><path class="a" d="M47.718,36.7V14.455a6.745,6.745,0,0,0-13.491,0V49.145a6.754,6.754,0,0,1-6.745,6.745H21.7a6.754,6.754,0,0,1-6.745-6.745V44.327h7.709a4.824,4.824,0,0,0,4.818-4.818V4.818A4.824,4.824,0,0,0,22.664,0H5.318A4.824,4.824,0,0,0,.5,4.818V39.509a4.824,4.824,0,0,0,4.818,4.818h7.709v4.818A8.682,8.682,0,0,0,21.7,57.818h5.782a8.682,8.682,0,0,0,8.673-8.673V14.455a4.818,4.818,0,1,1,9.636,0V36.7a6.751,6.751,0,0,0-5.782,6.668v7.709a6.745,6.745,0,0,0,13.491,0V43.364A6.751,6.751,0,0,0,47.718,36.7Zm-22.164-.077H2.427V7.709H25.555ZM5.318,1.927H22.664a2.891,2.891,0,0,1,2.891,2.891v.964H2.427V4.818A2.891,2.891,0,0,1,5.318,1.927ZM2.427,39.509v-.964H25.555v.964A2.891,2.891,0,0,1,22.664,42.4H5.318A2.891,2.891,0,0,1,2.427,39.509Zm44.327-.964a4.824,4.824,0,0,1,4.818,4.818v.964H41.936v-.964A4.824,4.824,0,0,1,46.755,38.545Zm0,17.345a4.824,4.824,0,0,1-4.818-4.818V46.255h9.636v4.818A4.824,4.824,0,0,1,46.755,55.891Zm0,0"/><path class="a" d="M376.5,336h1.927v1.927H376.5Zm0,0" transform="translate(-330.709 -295.527)"/><path class="a" d="M56.5,168h1.927v1.927H56.5Zm0,0" transform="translate(-49.255 -147.764)"/><path class="a" d="M88.5,168h5.782v1.927H88.5Zm0,0" transform="translate(-77.4 -147.764)"/><path class="a" d="M72.5,200h3.855v1.927H72.5Zm0,0" transform="translate(-63.327 -175.909)"/><path class="a" d="M120.5,200h3.855v1.927H120.5Zm0,0" transform="translate(-105.545 -175.909)"/><path class="a" d="M88.5,232h11.564v1.927H88.5Zm0,0" transform="translate(-77.4 -204.055)"/><path class="a" d="M32.785,101.633l1.927,1.927,1.363-1.363-1.246-1.246,1.246-1.246-1.363-1.363-1.927,1.927a.964.964,0,0,0,0,1.363Zm0,0" transform="translate(-28.148 -86.498)"/><path class="a" d="M92.206,103.561l1.927-1.927a.964.964,0,0,0,0-1.363l-1.927-1.927-1.363,1.363,1.246,1.246L90.844,102.2Zm0,0" transform="translate(-79.461 -86.498)"/></g></svg>