<svg xmlns="http://www.w3.org/2000/svg" width="32" height="32" viewBox="0 0 32 32"><defs><style>.a{fill:rgba(60,90,154,0);stroke:#fff;}.b{fill:#fff;}</style></defs><g transform="translate(-126.09 -1.926)"><circle class="a" cx="15.5" cy="15.5" r="15.5" transform="translate(126.59 2.426)"/><path class="b" d="M248.6,144.908a6.752,6.752,0,0,1-1.943.533,3.392,3.392,0,0,0,1.487-1.871,6.756,6.756,0,0,1-2.148.821,3.383,3.383,0,0,0-5.85,2.314,3.422,3.422,0,0,0,.087.771,9.6,9.6,0,0,1-6.971-3.534,3.385,3.385,0,0,0,1.047,4.515,3.367,3.367,0,0,1-1.532-.423v.043a3.384,3.384,0,0,0,2.713,3.316,3.364,3.364,0,0,1-.891.119,3.433,3.433,0,0,1-.637-.06,3.386,3.386,0,0,0,3.159,2.349,6.81,6.81,0,0,1-5.007,1.4,9.617,9.617,0,0,0,14.807-8.1q0-.22-.01-.437A6.891,6.891,0,0,0,248.6,144.908Z" transform="translate(-98.268 -132.096)"/></g></svg>